<svg width="242" height="76" viewBox="0 0 242 76" fill="none" xmlns="http://www.w3.org/2000/svg">
<path d="M75.9565 46V27.8H83.2625C84.5798 27.8 85.7672 28.0167 86.8245 28.45C87.8992 28.8833 88.8178 29.5073 89.5805 30.322C90.3605 31.1367 90.9498 32.0987 91.3485 33.208C91.7645 34.3173 91.9725 35.548 91.9725 36.9C91.9725 38.252 91.7645 39.4913 91.3485 40.618C90.9498 41.7273 90.3692 42.6893 89.6065 43.504C88.8438 44.3013 87.9252 44.9167 86.8505 45.35C85.7758 45.7833 84.5798 46 83.2625 46H75.9565ZM79.3365 43.374L79.0765 42.88H83.1325C83.9818 42.88 84.7358 42.7413 85.3945 42.464C86.0705 42.1867 86.6425 41.788 87.1105 41.268C87.5785 40.748 87.9338 40.124 88.1765 39.396C88.4192 38.6507 88.5405 37.8187 88.5405 36.9C88.5405 35.9813 88.4192 35.158 88.1765 34.43C87.9338 33.6847 87.5698 33.052 87.0845 32.532C86.6165 32.012 86.0532 31.6133 85.3945 31.336C84.7358 31.0587 83.9818 30.92 83.1325 30.92H78.9985L79.3365 30.478V43.374ZM101.484 46.26C100.046 46.26 98.7716 45.9567 97.6622 45.35C96.5702 44.7433 95.7122 43.92 95.0882 42.88C94.4816 41.8227 94.1782 40.618 94.1782 39.266C94.1782 38.1913 94.3516 37.212 94.6982 36.328C95.0449 35.444 95.5216 34.6813 96.1282 34.04C96.7522 33.3813 97.4889 32.8787 98.3382 32.532C99.2049 32.168 100.15 31.986 101.172 31.986C102.074 31.986 102.914 32.1593 103.694 32.506C104.474 32.8527 105.15 33.3293 105.722 33.936C106.294 34.5253 106.728 35.236 107.022 36.068C107.334 36.8827 107.482 37.7753 107.464 38.746L107.438 39.864H96.3362L95.7382 37.68H104.76L104.344 38.122V37.55C104.292 37.0127 104.119 36.5447 103.824 36.146C103.53 35.73 103.148 35.4093 102.68 35.184C102.23 34.9413 101.727 34.82 101.172 34.82C100.323 34.82 99.6036 34.9847 99.0142 35.314C98.4422 35.6433 98.0089 36.12 97.7142 36.744C97.4196 37.3507 97.2722 38.1133 97.2722 39.032C97.2722 39.916 97.4542 40.6873 97.8182 41.346C98.1996 42.0047 98.7282 42.516 99.4042 42.88C100.098 43.2267 100.904 43.4 101.822 43.4C102.464 43.4 103.053 43.296 103.59 43.088C104.128 42.88 104.708 42.5073 105.332 41.97L106.918 44.18C106.45 44.6133 105.913 44.986 105.306 45.298C104.717 45.5927 104.093 45.8267 103.434 46C102.776 46.1733 102.126 46.26 101.484 46.26ZM116.719 46.26C115.28 46.26 114.006 45.9567 112.897 45.35C111.805 44.7433 110.947 43.92 110.323 42.88C109.716 41.8227 109.413 40.618 109.413 39.266C109.413 38.1913 109.586 37.212 109.933 36.328C110.279 35.444 110.756 34.6813 111.363 34.04C111.987 33.3813 112.723 32.8787 113.573 32.532C114.439 32.168 115.384 31.986 116.407 31.986C117.308 31.986 118.149 32.1593 118.929 32.506C119.709 32.8527 120.385 33.3293 120.957 33.936C121.529 34.5253 121.962 35.236 122.257 36.068C122.569 36.8827 122.716 37.7753 122.699 38.746L122.673 39.864H111.571L110.973 37.68H119.995L119.579 38.122V37.55C119.527 37.0127 119.353 36.5447 119.059 36.146C118.764 35.73 118.383 35.4093 117.915 35.184C117.464 34.9413 116.961 34.82 116.407 34.82C115.557 34.82 114.838 34.9847 114.249 35.314C113.677 35.6433 113.243 36.12 112.949 36.744C112.654 37.3507 112.507 38.1133 112.507 39.032C112.507 39.916 112.689 40.6873 113.053 41.346C113.434 42.0047 113.963 42.516 114.639 42.88C115.332 43.2267 116.138 43.4 117.057 43.4C117.698 43.4 118.287 43.296 118.825 43.088C119.362 42.88 119.943 42.5073 120.567 41.97L122.153 44.18C121.685 44.6133 121.147 44.986 120.541 45.298C119.951 45.5927 119.327 45.8267 118.669 46C118.01 46.1733 117.36 46.26 116.719 46.26ZM125.531 51.72V32.298H128.677L128.729 35.418L128.183 35.184C128.287 34.6467 128.582 34.144 129.067 33.676C129.552 33.1907 130.142 32.8007 130.835 32.506C131.546 32.2113 132.282 32.064 133.045 32.064C134.258 32.064 135.333 32.3673 136.269 32.974C137.222 33.5807 137.968 34.4127 138.505 35.47C139.06 36.5273 139.337 37.7493 139.337 39.136C139.337 40.5053 139.06 41.7273 138.505 42.802C137.968 43.8593 137.222 44.7 136.269 45.324C135.333 45.9307 134.276 46.234 133.097 46.234C132.3 46.234 131.528 46.078 130.783 45.766C130.055 45.454 129.431 45.0467 128.911 44.544C128.408 44.0413 128.096 43.5127 127.975 42.958L128.755 42.594V51.72H125.531ZM132.447 43.4C133.175 43.4 133.825 43.218 134.397 42.854C134.969 42.49 135.411 41.9873 135.723 41.346C136.052 40.7047 136.217 39.968 136.217 39.136C136.217 38.304 136.061 37.576 135.749 36.952C135.437 36.3107 134.995 35.808 134.423 35.444C133.851 35.08 133.192 34.898 132.447 34.898C131.684 34.898 131.017 35.08 130.445 35.444C129.89 35.7907 129.448 36.2847 129.119 36.926C128.79 37.5673 128.625 38.304 128.625 39.136C128.625 39.968 128.79 40.7047 129.119 41.346C129.448 41.9873 129.89 42.49 130.445 42.854C131.017 43.218 131.684 43.4 132.447 43.4ZM150.611 46.26C149.311 46.26 148.107 46.026 146.997 45.558C145.888 45.09 144.917 44.44 144.085 43.608C143.271 42.7587 142.638 41.762 142.187 40.618C141.737 39.474 141.511 38.226 141.511 36.874C141.511 35.522 141.737 34.274 142.187 33.13C142.638 31.986 143.271 30.998 144.085 30.166C144.917 29.3167 145.888 28.658 146.997 28.19C148.107 27.722 149.311 27.488 150.611 27.488C151.929 27.488 153.142 27.722 154.251 28.19C155.361 28.658 156.323 29.3167 157.137 30.166C157.952 31.0153 158.585 32.012 159.035 33.156C159.486 34.2827 159.711 35.522 159.711 36.874C159.711 38.2087 159.486 39.448 159.035 40.592C158.585 41.736 157.952 42.7327 157.137 43.582C156.323 44.4313 155.361 45.09 154.251 45.558C153.142 46.026 151.929 46.26 150.611 46.26ZM150.611 43.036C151.443 43.036 152.197 42.8887 152.873 42.594C153.567 42.282 154.165 41.8487 154.667 41.294C155.17 40.722 155.56 40.0633 155.837 39.318C156.132 38.5727 156.279 37.758 156.279 36.874C156.279 35.99 156.132 35.1753 155.837 34.43C155.56 33.6847 155.17 33.0347 154.667 32.48C154.165 31.908 153.567 31.4747 152.873 31.18C152.197 30.868 151.443 30.712 150.611 30.712C149.797 30.712 149.043 30.868 148.349 31.18C147.656 31.4747 147.058 31.8993 146.555 32.454C146.053 33.0087 145.663 33.6587 145.385 34.404C145.108 35.1493 144.969 35.9727 144.969 36.874C144.969 37.758 145.108 38.5813 145.385 39.344C145.663 40.0893 146.053 40.7393 146.555 41.294C147.058 41.8487 147.656 42.282 148.349 42.594C149.043 42.8887 149.797 43.036 150.611 43.036ZM162.804 51.72V32.298H165.95L166.002 35.418L165.456 35.184C165.56 34.6467 165.855 34.144 166.34 33.676C166.826 33.1907 167.415 32.8007 168.108 32.506C168.819 32.2113 169.556 32.064 170.318 32.064C171.532 32.064 172.606 32.3673 173.542 32.974C174.496 33.5807 175.241 34.4127 175.778 35.47C176.333 36.5273 176.61 37.7493 176.61 39.136C176.61 40.5053 176.333 41.7273 175.778 42.802C175.241 43.8593 174.496 44.7 173.542 45.324C172.606 45.9307 171.549 46.234 170.37 46.234C169.573 46.234 168.802 46.078 168.056 45.766C167.328 45.454 166.704 45.0467 166.184 44.544C165.682 44.0413 165.37 43.5127 165.248 42.958L166.028 42.594V51.72H162.804ZM169.72 43.4C170.448 43.4 171.098 43.218 171.67 42.854C172.242 42.49 172.684 41.9873 172.996 41.346C173.326 40.7047 173.49 39.968 173.49 39.136C173.49 38.304 173.334 37.576 173.022 36.952C172.71 36.3107 172.268 35.808 171.696 35.444C171.124 35.08 170.466 34.898 169.72 34.898C168.958 34.898 168.29 35.08 167.718 35.444C167.164 35.7907 166.722 36.2847 166.392 36.926C166.063 37.5673 165.898 38.304 165.898 39.136C165.898 39.968 166.063 40.7047 166.392 41.346C166.722 41.9873 167.164 42.49 167.718 42.854C168.29 43.218 168.958 43.4 169.72 43.4ZM179.825 46V32.298H183.023V46H179.825ZM181.385 29.386C180.743 29.386 180.241 29.23 179.877 28.918C179.53 28.5887 179.357 28.1293 179.357 27.54C179.357 26.9853 179.539 26.5347 179.903 26.188C180.267 25.8413 180.761 25.668 181.385 25.668C182.043 25.668 182.546 25.8327 182.893 26.162C183.257 26.474 183.439 26.9333 183.439 27.54C183.439 28.0773 183.257 28.5193 182.893 28.866C182.529 29.2127 182.026 29.386 181.385 29.386ZM187.078 46V32.298H190.198L190.25 35.106L189.652 35.418C189.825 34.794 190.163 34.2307 190.666 33.728C191.169 33.208 191.767 32.792 192.46 32.48C193.153 32.168 193.864 32.012 194.592 32.012C195.632 32.012 196.499 32.22 197.192 32.636C197.903 33.052 198.431 33.676 198.778 34.508C199.142 35.34 199.324 36.38 199.324 37.628V46H196.126V37.862C196.126 37.1687 196.031 36.5967 195.84 36.146C195.649 35.678 195.355 35.34 194.956 35.132C194.557 34.9067 194.072 34.8027 193.5 34.82C193.032 34.82 192.599 34.898 192.2 35.054C191.819 35.1927 191.481 35.4007 191.186 35.678C190.909 35.938 190.683 36.2413 190.51 36.588C190.354 36.9347 190.276 37.316 190.276 37.732V46H188.69C188.378 46 188.083 46 187.806 46C187.546 46 187.303 46 187.078 46ZM203.286 46V32.298H206.484V46H203.286ZM204.846 29.386C204.204 29.386 203.702 29.23 203.338 28.918C202.991 28.5887 202.818 28.1293 202.818 27.54C202.818 26.9853 203 26.5347 203.364 26.188C203.728 25.8413 204.222 25.668 204.846 25.668C205.504 25.668 206.007 25.8327 206.354 26.162C206.718 26.474 206.9 26.9333 206.9 27.54C206.9 28.0773 206.718 28.5193 206.354 28.866C205.99 29.2127 205.487 29.386 204.846 29.386ZM216.805 46.26C215.435 46.26 214.213 45.9567 213.139 45.35C212.064 44.726 211.215 43.8767 210.591 42.802C209.967 41.7273 209.655 40.5053 209.655 39.136C209.655 37.7667 209.967 36.5447 210.591 35.47C211.215 34.3953 212.064 33.5547 213.139 32.948C214.213 32.324 215.435 32.012 216.805 32.012C218.157 32.012 219.37 32.324 220.445 32.948C221.519 33.5547 222.36 34.3953 222.967 35.47C223.591 36.5447 223.903 37.7667 223.903 39.136C223.903 40.5053 223.591 41.7273 222.967 42.802C222.36 43.8767 221.519 44.726 220.445 45.35C219.37 45.9567 218.157 46.26 216.805 46.26ZM216.805 43.426C217.55 43.426 218.209 43.2353 218.781 42.854C219.37 42.4727 219.829 41.9613 220.159 41.32C220.505 40.6787 220.67 39.9507 220.653 39.136C220.67 38.304 220.505 37.5673 220.159 36.926C219.829 36.2847 219.37 35.782 218.781 35.418C218.209 35.0367 217.55 34.846 216.805 34.846C216.059 34.846 215.383 35.0367 214.777 35.418C214.187 35.782 213.728 36.2933 213.399 36.952C213.069 37.5933 212.905 38.3213 212.905 39.136C212.905 39.9507 213.069 40.6787 213.399 41.32C213.728 41.9613 214.187 42.4727 214.777 42.854C215.383 43.2353 216.059 43.426 216.805 43.426ZM226.763 46V32.298H229.883L229.935 35.106L229.337 35.418C229.511 34.794 229.849 34.2307 230.351 33.728C230.854 33.208 231.452 32.792 232.145 32.48C232.839 32.168 233.549 32.012 234.277 32.012C235.317 32.012 236.184 32.22 236.877 32.636C237.588 33.052 238.117 33.676 238.463 34.508C238.827 35.34 239.009 36.38 239.009 37.628V46H235.811V37.862C235.811 37.1687 235.716 36.5967 235.525 36.146C235.335 35.678 235.04 35.34 234.641 35.132C234.243 34.9067 233.757 34.8027 233.185 34.82C232.717 34.82 232.284 34.898 231.885 35.054C231.504 35.1927 231.166 35.4007 230.871 35.678C230.594 35.938 230.369 36.2413 230.195 36.588C230.039 36.9347 229.961 37.316 229.961 37.732V46H228.375C228.063 46 227.769 46 227.491 46C227.231 46 226.989 46 226.763 46Z" fill="white"/>
<path fill-rule="evenodd" clip-rule="evenodd" d="M57.284 30.531C55.3389 33.0624 52.6928 32.1245 51.4389 31.2313C49.805 29.7672 47.3341 29.5127 45.4041 30.7624C43.0933 32.2588 42.4331 35.3452 43.9295 37.6561C45.4259 39.9669 48.5122 40.6271 50.8231 39.1307C51.844 38.4696 52.5428 37.4982 52.8757 36.4203C54.3154 33.1507 56.5089 32.7945 58.1625 33.7689C62.7235 36.2973 64.8161 34.6377 65.2575 33.4382C65.699 32.2387 65.7273 29.3494 64.0562 27.8206C61.8146 25.7699 59.8456 27.1971 57.284 30.531ZM18.6433 45.2684C20.5656 42.7202 23.2195 43.6341 24.4815 44.5161C26.1283 45.966 28.6016 46.1987 30.5206 44.9318C32.8181 43.415 33.451 40.3229 31.9342 38.0254C30.4173 35.7279 27.3252 35.095 25.0277 36.6119C24.013 37.2818 23.3229 38.2591 22.9995 39.3395C21.5889 42.6224 19.3984 42.9982 17.7361 42.0384C13.1529 39.5505 11.0751 41.2286 10.6443 42.432C10.2135 43.6354 10.2107 46.5248 11.8953 48.0387C14.1551 50.0695 16.1113 48.6248 18.6433 45.2684ZM31.3437 24.4629C32.2607 23.2259 33.2479 20.5995 30.7554 18.6067C27.4717 15.9811 26.0827 13.985 28.1763 11.7834C29.7371 10.1421 32.6253 10.2262 33.8161 10.6907C35.0068 11.1553 36.6257 13.2795 34.0097 17.7908C33.0037 19.4252 33.3173 21.6249 36.5576 23.1273C37.6292 23.4809 38.5873 24.1984 39.2288 25.2322C40.6803 27.5715 39.9606 30.6446 37.6213 32.0961C35.282 33.5476 32.2089 32.8279 30.7574 30.4886C29.5448 28.5344 29.8475 26.0681 31.3437 24.4629ZM44.8518 57.3314C42.3996 55.2884 43.4402 52.682 44.382 51.4639C45.9099 49.8891 46.262 47.4297 45.0891 45.4517C43.685 43.0836 40.6271 42.3022 38.259 43.7063C35.8909 45.1104 35.1095 48.1684 36.5136 50.5364C37.1339 51.5825 38.0769 52.319 39.1406 52.6942C42.3511 54.2616 42.6207 56.4676 41.5818 58.0816C38.8755 62.5393 40.4513 64.6957 41.6324 65.1841C42.8136 65.6725 45.6995 65.8147 47.293 64.2052C49.4306 62.0462 48.082 60.0225 44.8518 57.3314ZM41.301 30.0695C40.2185 32.8123 38.481 34.0855 37.0514 34.5965C32.1564 35.6935 28.2256 31.3489 26.6695 29.6291C26.5416 29.4876 26.4296 29.3639 26.3345 29.2624C26.0721 28.9824 25.7438 28.5402 25.35 28.0097C23.7378 25.8383 21.0274 22.1876 17.2383 22.1215C12.5237 22.0393 11.172 25.4358 14.0743 28.8996C15.9573 31.1469 19.9604 32.0149 23.9371 32.8771C26.0896 33.3438 28.2343 33.8088 30.0308 34.49C32.4637 35.5043 33.7125 37.0196 34.2954 38.3577C35.5086 43.2431 31.2271 47.2684 29.5342 48.8601L29.5339 48.8603C29.3951 48.9909 29.2736 49.1051 29.1741 49.202C28.899 49.4698 28.4632 49.8065 27.9404 50.2103C25.8002 51.8638 22.202 54.6435 22.2084 58.4331C22.2164 63.1485 25.6381 64.435 29.0458 61.467C31.2567 59.5413 32.0479 55.5223 32.8339 51.5299C33.2593 49.3689 33.6832 47.2157 34.3299 45.4065C35.5858 42.2244 37.7232 41.0203 39.2388 40.6896C43.7601 39.986 47.5235 43.8364 49.0611 45.4095C49.1945 45.5459 49.3111 45.6652 49.41 45.763C49.6831 46.0327 50.0281 46.4619 50.4421 46.9768C52.1367 49.0845 54.9858 52.6281 58.7745 52.5482C63.4888 52.4487 64.7087 49.0026 61.6752 45.6532C59.707 43.4801 55.6733 42.767 51.6664 42.0586C49.4976 41.6752 47.3365 41.2932 45.5151 40.6817C43.4715 39.9207 42.2245 38.7858 41.4958 37.6722C39.7971 32.5386 44.3402 28.2673 46.0967 26.6159C46.2357 26.4852 46.3572 26.371 46.4568 26.274C46.7318 26.0062 47.1676 25.6696 47.6903 25.2657L47.6904 25.2657L47.6904 25.2657L47.6905 25.2656C49.8307 23.6122 53.4289 20.8325 53.4225 17.0428C53.4145 12.3275 49.9927 11.041 46.5851 14.009C44.3742 15.9346 43.583 19.9537 42.797 23.9461C42.3715 26.1071 41.9476 28.2603 41.301 30.0695Z" fill="white"/>
</svg>
