<svg width="66" height="50" viewBox="0 0 66 50" fill="none" xmlns="http://www.w3.org/2000/svg">
<path fill-rule="evenodd" clip-rule="evenodd" d="M23.9484 21.3853V13.1135H25.845C27.0198 13.1135 27.9964 14.0783 27.9964 15.2701V20.7185H25.5902C24.8401 20.7752 24.3022 21.0874 23.9484 21.3853Z" fill="white"/>
<path fill-rule="evenodd" clip-rule="evenodd" d="M37.0124 13.0568C40.5509 13.1277 43.3958 16.0221 43.3958 19.5976C43.3958 23.2156 40.4801 26.1384 36.8709 26.1384C33.9127 26.1384 30.9404 26.0674 27.9822 26.0674V30.7638C27.9822 32.9062 26.2272 34.6656 24.0899 34.6656H19.0936C16.9564 34.6656 15.2013 32.9062 15.2013 30.7638V21.7684L17.8622 21.7968C18.853 21.8961 19.4191 22.8467 19.4616 23.3433V28.4085C19.4616 29.6429 20.4665 30.6503 21.7121 30.6503H23.9484V26.0533V24.606V23.8541C23.9484 22.6481 24.9392 21.6549 26.1422 21.6549H37.0266C38.3146 21.6549 39.3478 20.6617 39.3478 19.4273C39.3478 18.1929 38.3146 17.1997 37.0266 17.1997V13.0568H37.0124Z" fill="white"/>
<path fill-rule="evenodd" clip-rule="evenodd" d="M17.3527 13.0993H19.4616V21.3427C18.2161 20.1935 15.9939 20.4631 15.2013 20.6049V15.256C15.2013 14.0783 16.1637 13.0993 17.3527 13.0993Z" fill="white"/>
<path fill-rule="evenodd" clip-rule="evenodd" d="M62.8575 13.0993H65.3769V32.5373C65.3769 33.7149 64.4144 34.6656 63.2538 34.6656H61.1307V14.8303C61.1307 13.8797 61.9091 13.0993 62.8575 13.0993Z" fill="white"/>
<path fill-rule="evenodd" clip-rule="evenodd" d="M3.94894 17.1714H6.32679C7.6431 17.1714 8.7188 18.2497 8.7188 19.5692V28.2808C8.7188 29.6003 7.6431 30.6786 6.32679 30.6786H3.94894V17.1714ZM0 13.0993H8.88865C11.0259 13.0993 12.781 14.8587 12.781 17.0011V30.7638C12.781 32.9062 11.0259 34.6656 8.88865 34.6656H0V13.0993Z" fill="white"/>
<path fill-rule="evenodd" clip-rule="evenodd" d="M42.5183 24.6628C43.0137 25.6134 43.2968 26.6917 43.2968 27.841C43.2968 30.9766 41.2162 33.6298 38.3571 34.4669C36.4746 35.0202 34.4506 34.6655 32.5257 34.6655C31.3933 34.6655 30.4592 33.7291 30.4592 32.594L30.5017 27.0748L34.7478 27.0322V28.3801C34.7478 29.6571 35.7811 30.6928 37.0549 30.6928C38.3288 30.6928 39.362 29.6571 39.362 28.3801C39.362 27.7416 39.1072 27.1599 38.6826 26.7485C40.6783 26.7485 41.9946 25.3438 42.5183 24.6628Z" fill="white"/>
<path fill-rule="evenodd" clip-rule="evenodd" d="M35.8943 27.0322H37.0266C37.6494 27.0322 38.1589 27.543 38.1589 28.1673C38.1589 28.7916 37.6494 29.3024 37.0266 29.3024C36.4038 29.3024 35.8943 28.7916 35.8943 28.1673V27.0322Z" fill="white"/>
<path fill-rule="evenodd" clip-rule="evenodd" d="M45.9011 27.1315H49.9916V32.6082C49.9916 33.7433 49.0716 34.6655 47.9392 34.6655H45.8869V27.1315H45.9011Z" fill="white"/>
<path fill-rule="evenodd" clip-rule="evenodd" d="M58.6679 25.1026C57.7196 26.4647 56.3184 27.0748 54.5774 27.1316V32.6082C54.5774 33.7433 55.4974 34.6656 56.6297 34.6656H58.6821V25.1026H58.6679Z" fill="white"/>
<path fill-rule="evenodd" clip-rule="evenodd" d="M50.0057 20.7042C47.5571 20.6759 47.1891 20.3495 45.9153 21.4562V16.9585C45.9153 15.0147 47.9251 13.1703 49.6094 13.1703H50.9116C50.3454 13.4824 50.034 14.0074 50.0057 14.7877V20.7042V20.7042Z" fill="white"/>
<path fill-rule="evenodd" clip-rule="evenodd" d="M45.8869 25.9681H50.3171H54.4925C56.8704 25.9681 58.8094 24.0243 58.8094 21.6407V17.3558C58.8094 15.0999 57.0685 13.227 54.8605 13.0426L53.1196 13C52.0156 13 51.0956 13.9081 51.0956 15.0289V17.0295L51.0814 17.0579H52.2703C53.5725 17.0579 54.6482 18.1362 54.6482 19.4415C54.6482 20.7468 53.5867 21.8251 52.2703 21.8251C50.8125 21.8251 49.3829 21.8535 47.9534 21.8535C46.8211 21.8535 45.8869 22.7899 45.8869 23.925V25.9681V25.9681Z" fill="white"/>
<path fill-rule="evenodd" clip-rule="evenodd" d="M18.7964 35.6729H19.9287C20.5515 35.6729 21.061 36.1837 21.061 36.808C21.061 37.4323 20.5515 37.943 19.9287 37.943C19.3059 37.943 18.7964 37.4323 18.7964 36.808V35.6729Z" fill="white"/>
<path fill-rule="evenodd" clip-rule="evenodd" d="M22.1933 35.6729H23.3256C23.9484 35.6729 24.4579 36.1837 24.4579 36.808C24.4579 37.4323 23.9484 37.943 23.3256 37.943C22.7029 37.943 22.1933 37.4323 22.1933 36.808V35.6729Z" fill="white"/>
<path fill-rule="evenodd" clip-rule="evenodd" d="M30.5441 13.0568H35.8943V17.6254C35.1724 17.8524 34.6487 18.5193 34.6487 19.3138V20.5908H30.5441V13.0568Z" fill="white"/>
</svg>
