<svg width="70" height="50" viewBox="0 0 70 50" fill="none" xmlns="http://www.w3.org/2000/svg">
<path fill-rule="evenodd" clip-rule="evenodd" d="M24.0988 18.0936C24.0988 19.673 22.8251 20.8958 21.2966 20.8958C19.7682 20.8958 18.5454 19.673 18.4944 18.0936C18.4944 16.5142 19.7682 15.2914 21.2966 15.2914C22.876 15.2914 24.0988 16.5651 24.0988 18.0936ZM25.3216 13.1516L0 15.8009V22.628H7.99897V31.8498H16.0489V22.5771H25.3216V13.1516ZM69.8 31.8498H61.7501V13.2025L69.8 15.8009V31.8498ZM53.0887 30.3213C53.5982 30.3213 54.0058 29.9137 54.0058 29.4042C54.0058 28.8947 53.5982 28.4871 53.0887 28.4871H43.2046C42.6951 28.4871 42.2875 28.8947 42.2875 29.4042C42.2875 29.9137 42.6951 30.3213 43.2046 30.3213H53.0887ZM43.2046 37.1484C38.9249 37.1484 35.4604 33.6839 35.4604 29.4042C35.4604 25.1245 38.9249 21.66 43.2046 21.66H53.0887C57.3684 21.66 60.8329 25.1245 60.8329 29.4042C60.8329 33.6839 57.3684 37.1484 53.0887 37.1484H43.2046ZM25.3216 23.8508H17.2717V33.7349H25.3216V23.8508ZM44.1726 14.8838C40.3515 14.8838 36.887 16.3613 34.2886 18.7559V17.0237H26.5443V31.8498H34.2376V29.0985C34.3905 24.3093 38.3645 20.4372 43.2046 20.4372H44.1217L44.1726 14.8838Z" fill="white"/>
</svg>
