<svg width="68" height="47" viewBox="0 0 68 47" fill="none" xmlns="http://www.w3.org/2000/svg">
<path d="M35.5384 31.7726C45.5074 26.5853 55.4744 18.0598 61.1626 4.04219C61.3459 3.59014 61.1282 3.07422 60.6759 2.89036C60.2232 2.70594 59.709 2.92417 59.524 3.37707C45.6776 37.4947 5.50881 38.0525 5.10546 38.0538C4.61775 38.0545 4.22282 38.4526 4.22491 38.9416C4.22672 39.4301 4.62341 39.8237 5.11165 39.8227C5.36212 39.8217 20.4522 39.6224 35.5386 31.7724L35.5384 31.7726Z" fill="#4D9BE9"/>
<path d="M63.555 17.28C63.9008 17.1 64.0972 16.7052 64.0096 16.3058L61.0119 2.62793L48.5975 5.77554C48.126 5.89294 47.8373 6.3762 47.9575 6.8504C48.0774 7.32403 48.5581 7.61061 49.0323 7.49041L59.6764 4.79268L62.2829 16.6857C62.3877 17.1623 62.8585 17.4645 63.3365 17.3597C63.414 17.3416 63.4875 17.3145 63.555 17.28L63.555 17.28Z" fill="#4D9BE9"/>
</svg>
