<svg width="100" height="50" viewBox="0 0 100 50" fill="none" xmlns="http://www.w3.org/2000/svg">
<path fill-rule="evenodd" clip-rule="evenodd" d="M11.3783 17.08V19.9768C10.0643 19.5077 8.6841 19.2501 7.2893 19.2136C5.80187 19.2136 4.97738 19.6649 4.97738 20.4782C4.97738 20.9963 5.33949 21.3417 6.37567 21.8097L9.16112 23.0575C11.3895 24.0677 12.5036 25.5236 12.5036 27.4251C12.5036 30.361 9.9689 32.2105 5.94115 32.2105C4.26904 32.1853 2.60466 31.978 0.977483 31.5921V28.6006C2.50148 29.0451 4.07581 29.2941 5.6626 29.3415C7.33387 29.3415 8.21964 28.8791 8.21964 28.0156C8.21964 27.4975 7.87424 27.1131 7.07203 26.7622L4.01918 25.3973C1.7574 24.389 0.710083 23.0297 0.710083 21.091C0.710083 18.3056 3.16127 16.5396 6.99961 16.5396C8.46989 16.5614 9.93307 16.7482 11.3616 17.0967L11.3783 17.08ZM14.693 16.846H19.2054V31.9096H14.693V16.846ZM33.8792 19.6036V16.846H22.6817V31.9096H33.9683V29.0184H27.066V25.4976H33.0157V23.0018H27.066V19.6036H33.8792ZM55.1934 16.846V31.9096H50.8258V21.9935L46.5529 32.0266H43.7898L39.5448 21.9935V31.9096H36.5309V16.846H42.0405L45.9346 26.0045L49.8119 16.846H55.1934ZM69.8727 19.6036V16.846H58.6585V31.9096H69.9506V29.0184H63.0539V25.4976H69.0036V23.0018H63.0539V19.6036H69.8727ZM85.7664 16.846V31.9096H80.9531L75.5327 22.2497V31.9096H72.5132V16.846H77.4546L82.7637 26.3778V16.846H85.7664ZM98.858 19.9768V17.0799L98.8524 17.1022C97.4221 16.753 95.957 16.5661 94.4849 16.5451C90.6521 16.5451 88.2065 18.3055 88.2065 21.091C88.2065 23.0408 89.2371 24.3834 91.5156 25.3973L94.5573 26.7621C95.3929 27.1354 95.716 27.4864 95.716 28.0434C95.716 28.8791 94.8191 29.3414 93.1479 29.3414C91.5647 29.2939 89.9941 29.045 88.4739 28.6005V31.5921C90.1028 31.9786 91.7691 32.186 93.4431 32.2105C97.4597 32.2105 100 30.3665 100 27.4473C100 25.5254 98.8859 24.0714 96.6575 23.0575L93.8721 21.8096C92.7969 21.3249 92.4626 21.0297 92.4626 20.4726C92.4626 19.6593 93.2871 19.2136 94.7913 19.2136C96.1787 19.2512 97.5514 19.5088 98.858 19.9768Z" fill="white"/>
</svg>
