<svg width="82" height="50" viewBox="0 0 82 50" fill="none" xmlns="http://www.w3.org/2000/svg">
<path fill-rule="evenodd" clip-rule="evenodd" d="M75.9601 15.0734L63.0547 16.4639V18.1151H75.9601V15.0734ZM51.9742 15.2472H48.3242V20.7657H47.2379V23.5033H48.3242V29.717C48.3242 31.5855 49.8016 35.0182 53.104 35.0182C53.7123 35.0182 55.407 34.9748 55.407 34.9748V32.4111H54.6248C53.2778 32.3676 51.9742 31.5855 51.9742 29.239V23.5467H55.407V20.8092H51.9742V15.2472ZM46.2384 15.2907H12.8667V29.1521H12.7798L4.48037 15.2907H0.699982V35.1051H4.52382V22.0693H4.56727L12.5626 35.1051H16.6471V18.1586H46.2384V15.2907ZM32.7246 27.8051C32.7246 23.5467 29.6829 20.1139 25.5984 20.1139C21.5138 20.1139 18.2548 23.5467 18.2548 27.8051C18.2548 32.0634 21.5573 35.4962 25.5984 35.4962C29.3787 35.4962 31.5514 33.5408 32.5073 30.4557H29.118C28.3793 31.9331 26.9454 32.6283 25.5984 32.6283C23.7733 32.6283 22.2525 31.1075 21.7745 29.0652H32.5943C32.6812 28.6741 32.7246 28.2396 32.7246 27.8051ZM21.8614 26.2842C22.3829 24.3723 23.8603 22.9818 25.5984 22.9818C27.3365 22.9818 28.7704 24.3723 29.118 26.2842H21.8614ZM80.2184 30.4991C79.219 30.4991 78.4369 31.3247 78.4369 32.2807C78.4369 33.2367 79.2625 34.0623 80.2184 34.0623C81.2178 34.0623 82 33.2367 82 32.2807C82 31.3247 81.2178 30.4991 80.2184 30.4991ZM80.2184 33.9319C79.3059 33.9319 78.6107 33.1932 78.6107 32.2807C78.6107 31.3682 79.3059 30.6295 80.2184 30.6295C81.1309 30.6295 81.8262 31.3682 81.8262 32.2807C81.8262 33.1932 81.1309 33.9319 80.2184 33.9319ZM69.7029 20.1139C73.7874 20.1139 76.8291 23.5467 76.8291 27.8051C76.8291 28.2396 76.7857 28.6741 76.6988 29.0652H65.879C66.357 31.1075 67.8779 32.6283 69.7029 32.6283C71.0499 32.6283 72.4839 31.9331 73.2226 30.4557H76.6119C75.8297 33.845 73.4833 35.4962 69.7029 35.4962C65.6618 35.4962 62.3594 32.0634 62.3594 27.8051C62.3594 23.5467 65.6183 20.1139 69.7029 20.1139ZM69.7029 22.9818C67.9648 22.9818 66.4874 24.3723 65.9659 26.2842H73.2226C72.8749 24.3723 71.441 22.9818 69.7029 22.9818ZM40.1116 22.4604C38.0258 22.4604 37.3306 23.6336 37.3306 24.2419C37.3126 25.4097 38.9289 25.7233 40.828 26.0917C43.5221 26.6143 46.7853 27.2473 46.7598 30.586C46.7598 34.801 43.0663 35.6266 40.2419 35.6266C36.9395 35.6266 34.0282 34.4099 33.8978 30.5426H36.9395C36.9395 31.7593 37.7217 32.9759 40.1116 32.9759C42.458 32.9759 43.2836 32.4545 43.2836 31.1509C43.2836 29.8729 41.6019 29.5423 39.6721 29.163C37.0748 28.6524 34.0282 28.0535 34.0282 24.9372C34.0282 22.808 35.3752 19.8967 39.8943 19.8967C42.7187 19.8967 45.9777 20.9395 46.2819 24.6765H43.1098L43.1033 24.6553C42.924 24.0715 42.4293 22.4604 40.1116 22.4604ZM60.882 35.1051H57.0582V15.2907H60.882V35.1051ZM81.0441 31.8027C81.0441 32.1504 80.7834 32.3242 80.4792 32.3676L81.1745 33.3236H80.9572L80.3054 32.3242H79.7405V33.3236H79.5667V31.1944H80.3489C80.8268 31.1944 81.0441 31.4117 81.0441 31.8027ZM79.7405 32.2373H80.175C80.5227 32.2373 80.8703 32.1938 80.8703 31.8462C80.8703 31.4985 80.6096 31.4116 80.3489 31.4116H79.7405V32.2373Z" fill="white"/>
</svg>
