<svg width="38" height="50" viewBox="0 0 38 50" fill="none" xmlns="http://www.w3.org/2000/svg">
<path d="M36.0931 0H36.1181C36.1181 11.7047 36.1181 23.4221 36.1181 35.1268C32.3168 35.1268 28.5156 35.1268 24.7268 35.1268C24.7268 24.934 24.7268 14.7412 24.7268 4.54834C28.5156 3.03643 32.3168 1.52451 36.0931 0ZM12.3634 9.49986C12.3634 18.0422 12.3634 26.5845 12.3634 35.1268C16.1646 35.1268 19.9659 35.1268 23.7547 35.1268C23.7547 25.06 23.7547 15.0058 23.7547 4.93892C19.9659 6.46343 16.1646 7.97535 12.3634 9.49986ZM0 14.4388V35.1268C3.78878 35.1268 7.59003 35.1268 11.3788 35.1268C11.3788 26.7105 11.3788 18.3068 11.3788 9.89044C7.59003 11.4024 3.78878 12.9269 0 14.4388ZM0.697934 37.5963C0.473598 40.3681 0.236799 43.14 0 45.9118V45.9874H2.0938C2.20597 44.3243 2.34306 42.6612 2.45523 40.9981C2.55494 41.4895 2.61725 42.006 2.70449 42.4974C2.87898 43.6565 3.07839 44.8283 3.24041 45.9874H5.12234C5.33421 44.8031 5.55854 43.6313 5.78288 42.4596C5.88258 41.9808 5.9449 41.4769 6.06953 41.0107C6.14431 42.6738 6.25648 44.3369 6.34372 46H8.33782C8.18826 43.8077 8.05116 41.6028 7.90161 39.4106C7.86422 38.8058 7.81437 38.2136 7.78944 37.6089C6.85471 37.5963 5.91997 37.6089 4.98524 37.6089C4.84815 38.327 4.72352 39.0578 4.58642 39.776C4.46179 40.5067 4.28731 41.2501 4.24992 41.9934L4.22499 41.9556C4.20007 41.1367 4.03805 40.3303 3.91341 39.524C3.81371 38.8814 3.70154 38.2514 3.60184 37.6089C2.61725 37.5963 1.65759 37.5963 0.697934 37.5963ZM21.287 37.5963C21.2745 40.3933 21.287 43.1904 21.2745 45.9874H23.5179C23.5179 45.2314 23.5054 44.4755 23.4929 43.7195C23.4929 43.203 23.4556 42.6864 23.468 42.1698C23.9541 43.4423 24.4526 44.7149 24.9387 45.9874H27.369C26.696 44.5511 26.0354 43.1022 25.3624 41.6532C25.9233 40.2925 26.4966 38.957 27.0574 37.5963C26.2722 37.5963 25.4746 37.5837 24.6894 37.5963C24.2906 38.7806 23.8793 39.9523 23.4805 41.1493C23.4556 40.6705 23.4929 40.2043 23.4929 39.7256C23.4929 39.02 23.5179 38.3018 23.5179 37.5963C22.7826 37.5963 22.0348 37.5963 21.287 37.5963ZM27.5808 37.5963C27.5808 40.3933 27.5808 43.1904 27.5808 45.9874H31.6937C31.6937 45.3322 31.6937 44.6897 31.6937 44.0345C31.0456 44.0345 30.3975 44.0345 29.7494 44.0345C29.7494 43.5809 29.7494 43.14 29.7494 42.6864C30.3103 42.6864 30.8836 42.699 31.4444 42.6864C31.4444 42.0312 31.4444 41.3761 31.4444 40.7209C30.8836 40.7083 30.3103 40.7209 29.7494 40.7083C29.7494 40.3177 29.7494 39.9271 29.7494 39.5492C30.3975 39.5492 31.0456 39.5492 31.6937 39.5492C31.6937 38.9066 31.6937 38.2514 31.6937 37.6089C30.3227 37.5963 28.9518 37.5963 27.5808 37.5963ZM32.1673 37.5963C32.1673 40.3933 32.1673 43.1904 32.1673 45.9874H36.1181C36.1181 45.3322 36.1181 44.6897 36.1181 44.0345C35.5198 44.0345 34.9216 44.0345 34.3234 44.0345C34.3234 41.8926 34.3234 39.7382 34.3234 37.5963C33.613 37.5963 32.8901 37.5963 32.1673 37.5963ZM38 38.579V38.8688C37.9626 39.2972 37.7134 39.6878 37.3519 39.9019C36.816 40.2421 36.0558 40.1539 35.6195 39.6752C35.121 39.1712 35.121 38.2766 35.6195 37.7727C36.1056 37.2435 37.003 37.2183 37.5389 37.6845C37.8006 37.9239 37.9626 38.2514 38 38.579ZM37.4267 37.9491C37.0403 37.5081 36.305 37.4829 35.8937 37.8861C35.4326 38.3018 35.4201 39.1208 35.8688 39.5618C36.1181 39.8137 36.492 39.9145 36.8409 39.8641C37.1899 39.7886 37.489 39.5618 37.6261 39.2216C37.8255 38.8058 37.7383 38.2766 37.4267 37.9491ZM37.3021 39.524C37.2148 39.524 37.1276 39.524 37.0403 39.524C36.9033 39.2972 36.7662 39.0704 36.6291 38.8436C36.5418 38.8436 36.4421 38.8436 36.3549 38.8436C36.3549 39.0704 36.3549 39.2972 36.3549 39.524C36.2801 39.524 36.1929 39.524 36.1181 39.524C36.1181 38.9948 36.1181 38.4656 36.1181 37.9365C36.4172 37.9491 36.7288 37.8861 37.0154 37.9743C37.3519 38.075 37.3644 38.6168 37.0528 38.768C37.003 38.7932 36.9406 38.8058 36.8783 38.8184C36.978 39.083 37.1774 39.2846 37.3021 39.524ZM36.9032 38.6042C37.0653 38.5286 37.0528 38.2514 36.8783 38.1884C36.7038 38.1254 36.5294 38.1632 36.3549 38.1632C36.3549 38.327 36.3549 38.4908 36.3549 38.642C36.5418 38.6294 36.7288 38.6546 36.9032 38.6042ZM21.125 45.9874H18.6947C18.3457 45.0677 18.0092 44.1353 17.6727 43.2156C17.5854 43.0014 17.5356 42.762 17.4608 42.5478C17.4733 43.6943 17.4733 44.8409 17.4733 45.9874H15.2424C15.2424 43.1904 15.2424 40.3933 15.2424 37.5963C16.0525 37.5963 16.875 37.5963 17.6851 37.5963C18.4952 37.6089 19.3801 37.7601 19.9908 38.3648C20.5143 38.8562 20.7635 39.5996 20.7511 40.3051C20.7635 40.7209 20.7012 41.1493 20.5143 41.5273C20.3024 41.9682 19.9036 42.2832 19.4798 42.4974C20.0157 43.6691 20.5766 44.8283 21.125 45.9874ZM18.3332 39.6878C18.1338 39.4232 17.7724 39.3602 17.4483 39.3728C17.4857 40.0405 17.4359 40.7083 17.4733 41.3761C17.5979 41.3635 17.7225 41.3509 17.8347 41.3257C18.1837 41.2249 18.4329 40.8847 18.4828 40.5193C18.5451 40.2421 18.5077 39.9145 18.3332 39.6878ZM15.018 45.9874H12.6999C12.6376 45.6346 12.5877 45.2818 12.5254 44.9291C12.0269 44.9291 11.5284 44.9291 11.0298 44.9291C10.9551 45.2818 10.9052 45.6346 10.8429 45.9874H8.52476C9.18531 43.1904 9.85831 40.3933 10.5189 37.5963C11.4411 37.5963 12.3509 37.5963 13.2732 37.5963C13.8465 40.3933 14.4323 43.1904 15.018 45.9874ZM12.2637 43.1526C12.0892 42.0186 11.9521 40.8721 11.8524 39.7256C11.7776 40.2169 11.7402 40.7083 11.653 41.1997C11.5658 41.8548 11.4411 42.4974 11.329 43.1526C11.6405 43.1526 11.9521 43.1526 12.2637 43.1526Z" fill="white"/>
</svg>
